<svg xmlns="http://www.w3.org/2000/svg" viewBox="0 0 700 900"><rect width="700" height="900" fill="#bcecff"/><rect y="460" width="700" height="440" fill="#d8d9d4"/><path d="M0 620h700" stroke="#666" stroke-width="18"/><path d="M0 710h700" stroke="#666" stroke-width="18"/><g stroke="#a3a3a3" stroke-width="12"><path d="M20 650l90 100m40-100 90 100m40-100 90 100m40-100 90 100m40-100 90 100"/></g><rect x="80" y="260" width="540" height="245" rx="30" fill="#f55f5f"/><rect x="110" y="295" width="120" height="95" fill="#dff5ff"/><rect x="270" y="295" width="120" height="95" fill="#dff5ff"/><rect x="430" y="295" width="120" height="95" fill="#dff5ff"/><circle cx="190" cy="520" r="45" fill="#263648"/><circle cx="510" cy="520" r="45" fill="#263648"/><path d="M0 220h700" stroke="#23364c" stroke-width="12"/><path d="M100 220v-90m500 90v-90" stroke="#23364c" stroke-width="12"/></svg>
