<svg xmlns="http://www.w3.org/2000/svg" viewBox="0 0 700 900"><defs><linearGradient id="s" x2="0" y2="1"><stop stop-color="#78d3f5"/><stop offset="1" stop-color="#d9f5ff"/></linearGradient><linearGradient id="o" x2="0" y2="1"><stop stop-color="#198bc5"/><stop offset="1" stop-color="#70d2ee"/></linearGradient></defs><rect width="700" height="900" fill="url(#s)"/><circle cx="560" cy="150" r="70" fill="#ffe16b"/><path d="M0 430 Q180 390 360 440 T700 430V900H0Z" fill="url(#o)"/><path d="M0 520 Q170 485 330 540T700 520" fill="none" stroke="#fff" stroke-width="12" opacity=".75"/><path d="M380 250 L700 260V900H470Q430 700 350 620Z" fill="#b55535"/><path d="M370 230 Q480 190 700 220V360Q520 330 400 390Z" fill="#347d53"/><g fill="#204b3b"><path d="M450 240q20-110 40 0h-10q-5-65-10 0z"/><path d="M520 230q25-125 45 0h-12q-4-70-13 0z"/><path d="M610 225q18-105 38 0h-10q-5-65-10 0z"/></g><path d="M70 675 Q220 610 350 650 Q250 780 50 820Z" fill="#f7d38a"/><g fill="#fff" opacity=".8"><circle cx="110" cy="190" r="30"/><circle cx="145" cy="182" r="42"/><circle cx="186" cy="195" r="28"/></g></svg>
